<svg xmlns="http://www.w3.org/2000/svg" version="1.1" width="512px" height="512px" style="shape-rendering:geometricPrecision; text-rendering:geometricPrecision; image-rendering:optimizeQuality; fill-rule:evenodd; clip-rule:evenodd" xmlns:xlink="http://www.w3.org/1999/xlink">
<g><path style="opacity:0.979" fill="#000000" d="M 263.5,-0.5 C 271.167,-0.5 278.833,-0.5 286.5,-0.5C 316.752,8.97228 330.919,29.6389 329,61.5C 322.451,90.5444 304.284,106.211 274.5,108.5C 253.597,107.475 237.764,98.1421 227,80.5C 213.746,49.9512 220.579,25.1178 247.5,6C 252.744,3.31502 258.077,1.14836 263.5,-0.5 Z"></path></g>
<g><path style="opacity:0.98" fill="#000000" d="M 296.5,511.5 C 291.167,511.5 285.833,511.5 280.5,511.5C 266.158,506.803 258.492,496.803 257.5,481.5C 264.059,446.528 260.892,412.528 248,379.5C 235.105,353.438 215.272,334.771 188.5,323.5C 180.102,366.302 162.935,405.302 137,440.5C 120.386,463.126 101.552,483.959 80.5,503C 66.8333,513 53.1667,513 39.5,503C 27.9845,490.321 26.4845,476.487 35,461.5C 51.7654,445.739 67.4321,429.072 82,411.5C 99.1398,389.897 112.14,365.897 121,339.5C 127.684,318.521 129.184,297.188 125.5,275.5C 141.358,232.27 158.025,189.27 175.5,146.5C 148.025,147.098 120.692,145.264 93.5,141C 65.7755,135.799 40.4421,125.132 17.5,109C 10.1724,100.21 9.67236,91.0436 16,81.5C 22.3485,75.038 29.8485,73.2046 38.5,76C 66.313,94.3814 96.9797,104.381 130.5,106C 154.788,107.289 178.955,106.122 203,102.5C 208.357,102.798 213.524,103.964 218.5,106C 247.243,116.136 275.91,126.47 304.5,137C 307,138.833 309.167,141 311,143.5C 323.305,180.581 348.805,195.414 387.5,188C 398.549,186.072 409.215,182.905 419.5,178.5C 415.962,171.793 411.462,165.793 406,160.5C 402.174,151.423 401.507,142.09 404,132.5C 406.781,118.42 413.948,107.253 425.5,99C 447.437,89.9175 465.604,94.7509 480,113.5C 486.868,127.093 486.868,140.76 480,154.5C 475.621,166.211 467.788,174.711 456.5,180C 448.905,180.043 441.572,181.376 434.5,184C 443.471,193.691 443.804,203.691 435.5,214C 428.961,216.893 422.628,220.059 416.5,223.5C 415.228,223.43 414.062,223.097 413,222.5C 380.217,233.587 348.384,231.42 317.5,216C 308.059,209.558 299.559,202.058 292,193.5C 275.293,223.081 258.46,252.581 241.5,282C 290.263,315.871 316.763,362.704 321,422.5C 322.267,444.945 321.267,467.279 318,489.5C 314.65,500.682 307.483,508.016 296.5,511.5 Z"></path></g>
<g><path style="opacity:0.905" fill="#000000" d="M 478.5,203.5 C 492.438,205.043 496.938,212.377 492,225.5C 484.333,233.5 476.667,233.5 469,225.5C 464.337,214.629 467.504,207.296 478.5,203.5 Z"></path></g>
<g><path style="opacity:0.972" fill="#000000" d="M 301.5,269.5 C 367.5,269.5 433.5,269.5 499.5,269.5C 499.5,278.167 499.5,286.833 499.5,295.5C 433.5,295.5 367.5,295.5 301.5,295.5C 301.5,286.833 301.5,278.167 301.5,269.5 Z"></path></g>
</svg>
